<svg width="20" height="10" viewBox="0 0 20 10" fill="none" xmlns="http://www.w3.org/2000/svg">
<path d="M10.4161 10C10.6827 10 10.9287 9.95598 11.1543 9.86794C11.3798 9.7799 11.602 9.6357 11.8207 9.43534L19.3663 2.58652C19.6875 2.30115 19.8481 1.949 19.8481 1.53005C19.8481 1.25076 19.7712 0.99575 19.6175 0.765027C19.4637 0.534305 19.2586 0.34912 19.0023 0.209472C18.746 0.0698239 18.4607 0 18.1463 0C17.6747 0 17.2543 0.16697 16.8853 0.500911L10.4059 6.43898L3.94701 0.500911C3.58477 0.16697 3.16443 0 2.68599 0C2.37843 0 2.09478 0.0698239 1.83506 0.209472C1.57534 0.34912 1.36859 0.534305 1.2148 0.765027C1.06102 0.99575 0.984131 1.25076 0.984131 1.53005C0.984131 1.949 1.14475 2.30115 1.46598 2.58652L9.00133 9.43534C9.22004 9.62963 9.44217 9.77231 9.66772 9.86339C9.89327 9.95446 10.1427 10 10.4161 10Z" fill="#002B49"/>
</svg>
