<svg width="25" height="24" viewBox="0 0 25 24" fill="none" xmlns="http://www.w3.org/2000/svg">
<path d="M12.4801 17C12.7446 17 12.9888 16.956 13.2126 16.8679C13.4365 16.7799 13.6569 16.6357 13.8739 16.4353L21.3619 9.58652C21.6807 9.30115 21.8401 8.949 21.8401 8.53005C21.8401 8.25076 21.7638 7.99575 21.6112 7.76503C21.4586 7.5343 21.2551 7.34912 21.0008 7.20947C20.7464 7.06982 20.4632 7 20.1512 7C19.6832 7 19.2661 7.16697 18.8999 7.50091L12.4699 13.439L6.06038 7.50091C5.7009 7.16697 5.28377 7 4.80899 7C4.50377 7 4.22229 7.06982 3.96455 7.20947C3.70681 7.34912 3.50164 7.5343 3.34903 7.76503C3.19642 7.99575 3.12012 8.25076 3.12012 8.53005C3.12012 8.949 3.27951 9.30115 3.59829 9.58652L11.0761 16.4353C11.2932 16.6296 11.5136 16.7723 11.7374 16.8634C11.9612 16.9545 12.2088 17 12.4801 17Z" fill="#002B49"/>
</svg>
